<svg width="31" height="24" viewBox="0 0 31 24" fill="none" xmlns="http://www.w3.org/2000/svg">
<path fill-rule="evenodd" clip-rule="evenodd" d="M27.6115 0.695444C28.9453 1.07816 29.9957 2.20591 30.3522 3.63785C31 6.23332 31 11.6485 31 11.6485C31 11.6485 31 17.0637 30.3522 19.6592C29.9957 21.0912 28.9453 22.1719 27.6115 22.5546C25.1939 23.2501 15.5 23.2501 15.5 23.2501C15.5 23.2501 5.80608 23.2501 3.3885 22.5546C2.05475 22.1719 1.0043 21.0912 0.647775 19.6592C0 17.0637 0 11.6485 0 11.6485C0 11.6485 0 6.23332 0.647775 3.63785C1.0043 2.20591 2.05475 1.07822 3.3885 0.695444C5.80608 0 15.5 0 15.5 0C15.5 0 25.194 0 27.6115 0.695444ZM12.3295 6.73193V16.5651L20.4318 11.6487L12.3295 6.73193Z" fill="white"/>
</svg>
